<?xml version="1.0" encoding="utf-8"?>
<svg viewBox="0 0 2000 419" width="100" xmlns="http://www.w3.org/2000/svg">
  <g transform="matrix(1, 0, 0, 1, -1.2121212663072498, 0.6903359396805797)">
    <svg viewBox="0 0 396 83" data-background-color="#444444" preserveAspectRatio="xMidYMid meet" height="419" width="2000" xmlns="http://www.w3.org/2000/svg">
      <g id="tight-bounds" transform="matrix(1,0,0,1,0.2400000000000091,-0.1367491166077741)">
        <svg viewBox="0 0 395.52 83.27349823321555" height="83.27349823321555" width="395.52">
          <g>
            <svg viewBox="0 0 395.52 83.27349823321555" height="83.27349823321555" width="395.52">
              <g>
                <svg viewBox="0 0 395.52 83.27349823321555" height="83.27349823321555" width="395.52">
                  <g id="textblocktransform">
                    <svg viewBox="0 0 395.52 83.27349823321555" height="83.27349823321555" width="395.52" id="textblock">
                      <g>
                        <svg viewBox="0 0 395.52 83.27349823321555" height="83.27349823321555" width="395.52">
                          <g transform="matrix(1,0,0,1,0,0)">
                            <svg width="395.52" viewBox="1.05 -34.9 169.79 35.75" height="83.27349823321555" data-palette-color="#01ff70">
                              <path d="M18.2 0.85L18.2 0.85Q13.1 0.85 9.25-1.3 5.4-3.45 3.23-7.38 1.05-11.3 1.05-16.6L1.05-16.6Q1.05-21.8 3.18-25.7 5.3-29.6 9.35-31.78 13.4-33.95 19.05-33.95L19.05-33.95Q21.75-33.95 24.08-33.35 26.4-32.75 28.45-31.6L28.45-31.6 28.65-24.45 27.3-24.45 24.8-29.5Q24.2-30.7 23.65-31.25 23.1-31.8 22.2-32.05L22.2-32.05Q21.55-32.3 20.95-32.38 20.35-32.45 19.4-32.45L19.4-32.45Q16.25-32.45 13.85-30.83 11.45-29.2 10.13-25.7 8.8-22.2 8.8-16.6L8.8-16.6Q8.8-8.15 11.58-4.38 14.35-0.6 19-0.6L19-0.6Q20.1-0.6 20.9-0.9L20.9-0.9Q21.85-1.05 22.2-1.68 22.55-2.3 22.55-3.25L22.55-3.25Q22.55-5.3 22.53-7.73 22.5-10.15 22.5-12.15L22.5-12.15Q22.5-14.1 20.45-14.55L20.45-14.55 18.2-15.05 18.2-16.1 32-16.1 32-15.05 31.4-14.9Q30.45-14.6 29.95-14.03 29.45-13.45 29.45-12.45L29.45-12.45Q29.45-10.45 29.43-8.38 29.4-6.3 29.4-4.2L29.4-4.2 29.4-2.05Q26.8-0.65 24.13 0.1 21.45 0.85 18.2 0.85ZM46.3 0L33.8 0 33.8-0.95 34.55-1.2Q35.55-1.45 35.92-2.05 36.3-2.65 36.3-3.65L36.3-3.65 36.3-18.3Q36.25-19.4 35.9-19.98 35.55-20.55 34.55-20.75L34.55-20.75 33.8-20.95 33.8-21.85 41.95-24.75 42.55-24.2 43-19.8 43-19.45Q43.75-20.85 44.9-22.05 46.05-23.25 47.4-24 48.75-24.75 50.1-24.75L50.1-24.75Q52-24.75 52.95-23.75 53.9-22.75 53.9-21.2L53.9-21.2Q53.9-19.5 52.95-18.63 52-17.75 50.65-17.75L50.65-17.75Q48.65-17.75 47.2-19.55L47.2-19.55 47.1-19.65Q46.6-20.25 45.97-20.33 45.35-20.4 44.75-19.7L44.75-19.7Q44.25-19.2 43.82-18.53 43.4-17.85 43.05-16.95L43.05-16.95 43.05-3.85Q43.05-2.9 43.45-2.27 43.85-1.65 44.8-1.4L44.8-1.4 46.3-0.95 46.3 0ZM68.05-24.75L68.05-24.75Q71.2-24.75 73.45-23.45 75.7-22.15 76.92-19.88 78.15-17.6 78.15-14.65L78.15-14.65Q78.15-14 78.09-13.43 78.05-12.85 77.9-12.35L77.9-12.35 62.85-12.35Q62.9-7.2 64.77-4.95 66.65-2.7 70.25-2.7L70.25-2.7Q72.75-2.7 74.3-3.53 75.84-4.35 77.15-5.85L77.15-5.85 77.95-5.1Q76.45-2.35 73.87-0.83 71.3 0.7 67.75 0.7L67.75 0.7Q64.2 0.7 61.5-0.8 58.8-2.3 57.27-5.13 55.75-7.95 55.75-11.9L55.75-11.9Q55.75-16 57.52-18.85 59.3-21.7 62.12-23.23 64.95-24.75 68.05-24.75ZM67.8-23.3L67.8-23.3Q66.34-23.3 65.27-22.48 64.2-21.65 63.57-19.58 62.95-17.5 62.85-13.75L62.85-13.75 71.8-13.75Q72.34-18.8 71.4-21.05 70.45-23.3 67.8-23.3ZM93.19-24.75L93.19-24.75Q96.34-24.75 98.59-23.45 100.84-22.15 102.07-19.88 103.29-17.6 103.29-14.65L103.29-14.65Q103.29-14 103.24-13.43 103.19-12.85 103.04-12.35L103.04-12.35 87.99-12.35Q88.04-7.2 89.92-4.95 91.79-2.7 95.39-2.7L95.39-2.7Q97.89-2.7 99.44-3.53 100.99-4.35 102.29-5.85L102.29-5.85 103.09-5.1Q101.59-2.35 99.02-0.83 96.44 0.7 92.89 0.7L92.89 0.7Q89.34 0.7 86.64-0.8 83.94-2.3 82.42-5.13 80.89-7.95 80.89-11.9L80.89-11.9Q80.89-16 82.67-18.85 84.44-21.7 87.27-23.23 90.09-24.75 93.19-24.75ZM92.94-23.3L92.94-23.3Q91.49-23.3 90.42-22.48 89.34-21.65 88.72-19.58 88.09-17.5 87.99-13.75L87.99-13.75 96.94-13.75Q97.49-18.8 96.54-21.05 95.59-23.3 92.94-23.3ZM117.29 0L105.84 0 105.84-0.95 106.64-1.15Q108.29-1.65 108.29-3.6L108.29-3.6 108.29-18.35Q108.24-19.4 107.94-19.98 107.64-20.55 106.64-20.75L106.64-20.75 105.84-20.95 105.84-21.85 113.94-24.75 114.54-24.2 114.89-21.1Q116.69-22.7 118.92-23.73 121.14-24.75 123.29-24.75L123.29-24.75Q126.59-24.75 128.37-22.95 130.14-21.15 130.14-17.45L130.14-17.45 130.14-3.55Q130.14-1.6 131.94-1.1L131.94-1.1 132.49-0.95 132.49 0 120.99 0 120.99-0.95 121.74-1.15Q123.39-1.7 123.39-3.6L123.39-3.6 123.39-18.45Q123.39-20.2 122.64-21 121.89-21.8 120.14-21.8L120.14-21.8Q117.69-21.8 115.04-19.65L115.04-19.65 115.04-3.55Q115.04-1.6 116.79-1.1L116.79-1.1 117.29-0.95 117.29 0ZM140.34-27.5L140.34-27.5Q138.69-27.5 137.54-28.55 136.39-29.6 136.39-31.2L136.39-31.2Q136.39-32.85 137.54-33.88 138.69-34.9 140.34-34.9L140.34-34.9Q141.99-34.9 143.14-33.88 144.29-32.85 144.29-31.2L144.29-31.2Q144.29-29.6 143.14-28.55 141.99-27.5 140.34-27.5ZM146.04 0L134.59 0 134.59-0.95 135.34-1.15Q136.34-1.45 136.69-2.05 137.04-2.65 137.09-3.65L137.09-3.65 137.09-12.85Q137.09-14.4 137.09-15.73 137.09-17.05 137.04-18.45L137.04-18.45Q137.04-19.45 136.66-20.03 136.29-20.6 135.29-20.8L135.29-20.8 134.59-20.95 134.59-21.85 143.34-24.75 143.94-24.2 143.79-17.1 143.79-3.6Q143.79-2.6 144.16-2 144.54-1.4 145.49-1.1L145.49-1.1 146.04-0.95 146.04 0ZM160.74-24.75L160.74-24.75Q163.88-24.75 166.13-23.45 168.38-22.15 169.61-19.88 170.84-17.6 170.84-14.65L170.84-14.65Q170.84-14 170.78-13.43 170.74-12.85 170.59-12.35L170.59-12.35 155.53-12.35Q155.59-7.2 157.46-4.95 159.34-2.7 162.94-2.7L162.94-2.7Q165.44-2.7 166.99-3.53 168.53-4.35 169.84-5.85L169.84-5.85 170.63-5.1Q169.13-2.35 166.56-0.83 163.99 0.7 160.44 0.7L160.44 0.7Q156.88 0.7 154.19-0.8 151.49-2.3 149.96-5.13 148.44-7.95 148.44-11.9L148.44-11.9Q148.44-16 150.21-18.85 151.99-21.7 154.81-23.23 157.63-24.75 160.74-24.75ZM160.49-23.3L160.49-23.3Q159.03-23.3 157.96-22.48 156.88-21.65 156.26-19.58 155.63-17.5 155.53-13.75L155.53-13.75 164.49-13.75Q165.03-18.8 164.09-21.05 163.13-23.3 160.49-23.3Z" opacity="1" transform="matrix(1,0,0,1,0,0)" fill="#01ff70" class="wordmark-text-0" data-fill-palette-color="primary" id="text-0"/>
                            </svg>
                          </g>
                        </svg>
                      </g>
                    </svg>
                  </g>
                </svg>
              </g>
            </svg>
          </g>
        </svg>
        <rect width="395.52" height="83.27349823321555" fill="none" stroke="none" visibility="hidden"/>
      </g>
    </svg>
  </g>
</svg>